<svg width="115" height="115" viewBox="0 0 115 115" fill="none" xmlns="http://www.w3.org/2000/svg">
<g clip-path="url(#clip0_3658_437557)">
<path d="M103.499 115H11.501C5.15213 115 0 109.848 0 103.499V11.501C0 5.15213 5.15213 0 11.501 0H103.499C109.848 0 115 5.15213 115 11.501V103.499C115 109.848 109.848 115 103.499 115Z" fill="#BE875C"/>
<path d="M78.9648 65.4162C74.8548 67.1962 69.3948 64.4462 66.0348 62.1762C64.5248 61.1562 62.8148 59.8662 61.9448 58.2162C61.8248 57.9962 61.7048 57.6862 61.6748 57.5262C61.6448 57.3762 61.7248 57.1262 61.6848 57.1962C61.7348 57.0962 61.7948 57.0162 62.0248 56.8962C62.3548 56.7162 62.7748 56.6362 63.1548 56.5762C72.2548 55.2462 76.1848 67.7562 77.8348 74.4462C78.2948 76.3162 78.6848 78.2062 78.9848 80.1062C79.0348 80.4462 79.0948 80.7862 79.1448 81.1262C79.1648 81.2562 79.1848 81.3862 79.2048 81.5262C79.2448 81.8162 79.1848 81.3662 79.2248 81.6762C79.2548 81.8862 79.2748 82.0962 79.3048 82.3062C79.9448 82.0362 80.5848 81.7762 81.2248 81.5062C77.8848 78.1862 73.3948 75.6462 68.9148 74.2662C64.8348 73.0062 60.8548 73.0262 56.6948 73.8262C53.4548 74.4462 50.1648 73.0162 48.2548 70.3462C45.8548 67.0062 45.9448 62.6262 47.4648 58.9462C47.9348 57.8162 48.5348 56.7262 49.2148 55.7062C49.6748 55.0062 50.2748 54.4862 50.1548 53.6162C50.0948 53.1562 49.9548 52.6962 49.8748 52.2362C49.2748 48.8962 48.3948 42.1762 52.3748 40.4862C55.1248 39.3262 58.9548 40.5862 60.1448 43.3662C60.5448 44.2862 60.7048 45.3062 60.7248 46.3062C60.7348 46.6962 60.7148 47.0862 60.6948 47.4762C60.6848 47.5962 60.6748 47.7062 60.6548 47.8262C60.6648 47.7762 60.7048 47.5162 60.6748 47.6862C60.4448 49.1062 62.6148 49.7162 62.8448 48.2862C63.5848 43.7262 61.3848 38.9762 56.5248 38.1062C53.4948 37.5662 50.3648 38.1462 48.6548 40.9162C47.2548 43.1862 47.0748 46.1162 47.2048 48.7062C47.2948 50.5662 47.5348 52.4562 47.9848 54.2562C48.0248 53.9662 48.0648 53.6762 48.0948 53.3862C45.2148 57.3062 43.3648 62.1562 44.3848 67.0562C45.1448 70.7162 47.6248 73.9462 51.0848 75.4062C52.7148 76.0962 54.4848 76.3562 56.2448 76.1562C58.5548 75.8962 60.6848 75.3462 63.0348 75.4662C67.0548 75.6862 70.9348 77.1362 74.3748 79.1862C76.2348 80.2962 78.0748 81.5762 79.6148 83.1062C80.2548 83.7362 81.6448 83.3162 81.5348 82.3062C81.2448 79.5662 80.7148 76.8262 80.0648 74.1462C78.8848 69.2762 77.2348 64.2362 74.2648 60.1362C71.4848 56.2862 67.1148 53.3562 62.1648 54.4762C60.3848 54.8762 59.0348 56.2362 59.4948 58.1462C59.9748 60.1062 61.7248 61.7062 63.2348 62.9062C67.5948 66.3762 74.5048 69.7562 80.0748 67.3462C81.4248 66.7862 80.2848 64.8462 78.9648 65.4162Z" fill="white"/>
<path d="M80.4297 82.3174C80.4297 82.3174 80.4297 82.3174 90.8797 89.7774C96.0297 93.4574 101.33 86.7874 96.8497 83.8074C92.3697 80.8274 78.9297 73.3574 78.9297 73.3574L80.4297 82.3174Z" fill="white"/>
<path d="M79.8625 83.2867C80.5525 83.7767 81.2425 84.2767 81.9325 84.7667C83.5425 85.9167 85.1425 87.0567 86.7525 88.2067C88.9225 89.7567 91.1925 91.9967 94.0325 91.9867C98.2425 91.9667 101.783 86.6567 98.1625 83.4067C96.8525 82.2367 95.1425 81.3867 93.6425 80.4867C91.7425 79.3467 89.8225 78.2367 87.8925 77.1267C85.1125 75.5267 82.3125 73.9467 79.5125 72.3867C78.5925 71.8767 77.7025 72.7167 77.8625 73.6567C78.3625 76.6467 78.8625 79.6267 79.3525 82.6167C79.5925 84.0467 81.7625 83.4367 81.5225 82.0167C81.0225 79.0267 80.5225 76.0467 80.0325 73.0567C79.4825 73.4767 78.9325 73.9067 78.3825 74.3267C83.8625 77.3767 89.3625 80.4367 94.6925 83.7467C95.8425 84.4667 97.5425 85.2367 97.4225 86.8367C97.3125 88.3467 95.8725 89.5267 94.4425 89.7067C93.4525 89.8267 92.5025 89.4767 91.6825 88.9467C90.3925 88.1067 89.1625 87.1567 87.9125 86.2567C86.3925 85.1667 84.8725 84.0867 83.3525 82.9967C82.5725 82.4367 81.8025 81.8867 81.0225 81.3267C79.8125 80.4967 78.6925 82.4467 79.8625 83.2867Z" fill="white"/>
<path d="M78.9322 71.497C93.7522 71.297 88.5922 49.497 84.4122 41.407C78.4522 29.877 66.5422 22.267 53.5222 22.007C40.5122 21.747 28.0822 28.797 21.6322 40.107C15.0822 51.587 15.5022 66.227 22.7422 77.297C30.1122 88.557 43.5822 94.987 56.9822 93.297C61.4722 92.727 66.0722 92.097 69.9422 89.537C71.1622 88.727 72.6022 87.647 73.1222 86.227C73.5922 84.927 73.2122 83.387 71.9422 82.687C70.6322 81.967 69.6622 82.717 68.6422 83.467C67.6122 84.227 66.3522 84.687 65.1522 85.087C60.2022 86.717 55.0222 87.517 49.8522 87.017C43.4122 86.397 37.2422 83.547 32.5522 79.097C22.8222 69.867 20.5222 54.757 27.1922 43.087C33.7922 31.547 47.7622 25.697 60.6022 29.257C73.3722 32.797 82.2622 45.177 82.3022 58.327C82.3122 61.107 81.6922 64.127 78.9722 65.417C77.6622 66.037 78.8022 67.977 80.1122 67.357C85.9022 64.607 84.8722 56.317 83.7222 51.217C82.3622 45.177 79.3022 39.527 74.9222 35.137C65.7722 25.967 51.6822 23.487 39.8722 28.717C28.2222 33.877 20.6622 46.007 21.1022 58.737C21.5422 71.467 29.7722 82.887 41.6822 87.397C47.1822 89.477 52.9022 89.727 58.6722 88.857C61.0622 88.497 63.4522 88.007 65.7522 87.257C66.9622 86.857 68.1822 86.387 69.2722 85.737C69.6622 85.507 70.2022 84.857 70.6122 84.747C71.3922 84.537 70.9722 85.617 70.6622 85.997C68.8722 88.207 65.7022 89.317 63.0522 90.017C61.3722 90.467 59.6722 90.727 57.9522 90.917C54.5122 91.287 51.1822 91.497 47.7422 90.967C44.5822 90.477 41.4622 89.557 38.5722 88.197C26.9522 82.707 19.2722 70.847 19.2022 57.967C19.1422 45.087 26.6922 33.127 38.2822 27.537C49.9422 21.907 64.3422 23.667 74.2022 32.087C78.9722 36.167 82.5722 41.537 84.5622 47.487C85.6022 50.587 86.2222 53.817 86.4022 57.087C86.5522 59.847 86.5522 62.897 85.3922 65.467C84.1922 68.147 81.7622 69.217 78.9322 69.247C77.4922 69.267 77.4822 71.517 78.9322 71.497Z" fill="white"/>
</g>
<defs>
<clipPath id="clip0_3658_437557">
<rect width="115" height="115" fill="white"/>
</clipPath>
</defs>
</svg>
